PathFileType	4	(X/Y/Z)	/Users/itak/Documents/Research/Walk-IL/dataset/trc/00507_00183.trc
DataRate	CameraRate	NumFrames	NumMarkers	Units	OrigDataRate	OrigDataStartFrame	OrigNumFrames
100.000000	100.000000	4	53	mm	100.000000	85	341
Frame#	Time	RPSI			LPSI			L3			STRN			T10			C7			CLAV			RBAK			LBAK			LSHO			LUPA			LAEL			LAOL			LWTS			LWPS			LFRA			LIFD			LHPS			LHTS			RSHO			RUPA			RAEL			RAOL			RWTS			RWPS			RFRA			RIFD			RHTS			RHPS			RBHD			LFHD			RFHD			LBHD			LHIP			RASI			LASI			LKNE			LTHI			LANK			LTIP			LTOE			LMT1			LMT5			LHEE			RKNE			RTHI			RANK			RTIP			RTOE			RMT1			RMT5			RHEE			RHIP			
		X1	Y1	Z1	X2	Y2	Z2	X3	Y3	Z3	X4	Y4	Z4	X5	Y5	Z5	X6	Y6	Z6	X7	Y7	Z7	X8	Y8	Z8	X9	Y9	Z9	X10	Y10	Z10	X11	Y11	Z11	X12	Y12	Z12	X13	Y13	Z13	X14	Y14	Z14	X15	Y15	Z15	X16	Y16	Z16	X17	Y17	Z17	X18	Y18	Z18	X19	Y19	Z19	X20	Y20	Z20	X21	Y21	Z21	X22	Y22	Z22	X23	Y23	Z23	X24	Y24	Z24	X25	Y25	Z25	X26	Y26	Z26	X27	Y27	Z27	X28	Y28	Z28	X29	Y29	Z29	X30	Y30	Z30	X31	Y31	Z31	X32	Y32	Z32	X33	Y33	Z33	X34	Y34	Z34	X35	Y35	Z35	X36	Y36	Z36	X37	Y37	Z37	X38	Y38	Z38	X39	Y39	Z39	X40	Y40	Z40	X41	Y41	Z41	X42	Y42	Z42	X43	Y43	Z43	X44	Y44	Z44	X45	Y45	Z45	X46	Y46	Z46	X47	Y47	Z47	X48	Y48	Z48	X49	Y49	Z49	X50	Y50	Z50	X51	Y51	Z51	X52	Y52	Z52	X53	Y53	Z53	

86	0.85	-970.7672119140625	947.098876953125	-418.0777587890625	-901.1525268554688	955.4759521484375	-520.3823852539062	-944.4534301757812	1013.004577636719	-473.4687805175781	-729.890380859375	1167.609008789062	-379.8611450195312	-953.4236450195312	1120.127685546875	-471.2271728515625	-901.5319213867188	1347.055786132812	-449.7030029296875	-758.8644409179688	1263.944946289062	-394.1335144042969	-979.3894653320312	1227.210693359375	-387.5521545410156	-891.5372314453125	1293.371459960938	-539.3085327148438	-775.1650390625	1338.009765625	-570.6182250976562	-775.1368408203125	1218.27734375	-640.661865234375	-759.9772338867188	1020.266235351562	-676.0769653320312	-853.156494140625	999.7388916015625	-645.572021484375	-647.0833129882812	864.2343139648438	-585.2465209960938	-673.9072265625	821.7531127929688	-665.5283813476562	-721.8731079101562	952.6353149414062	-667.6365356445312	-664.61376953125	704.7341918945312	-561.5398559570312	-660.3997802734375	767.759765625	-643.2872314453125	-631.56884765625	779.81103515625	-584.8117065429688	-901.6589965820312	1340.683227539062	-291.1375732421875	-941.2561645507812	1276.430053710938	-243.8794708251953	-969.8714599609375	1011.359497070312	-195.3416595458984	-1008.726196289062	997.1959228515625	-246.6225128173828	-860.970458984375	818.4412231445312	-183.3080596923828	-946.9819946289062	787.7972412109375	-177.5535736083984	-969.9471435546875	957.0230102539062	-187.1203002929688	-841.1646728515625	662.22509765625	-182.4394226074219	-851.1890869140625	726.634033203125	-152.7789459228516	-919.703369140625	716.9102172851562	-166.7277221679688	-916.19921875	1489.535034179688	-366.2336730957031	-742.3203125	1569.236938476562	-426.7691345214844	-806.6024169921875	1556.9794921875	-317.3501892089844	-848.614990234375	1499.054321289062	-510.1647338867188	-748.3040161132812	874.8818969726562	-583.8944091796875	-833.1369018554688	868.912841796875	-269.8735961914062	-703.4580078125	894.3092651367188	-473.6102294921875	-821.6309814453125	453.1886291503906	-563.691162109375	-769.0335083007812	606.2598876953125	-568.095703125	-1035.252319335938	67.38970947265625	-654.0354614257812	-888.4716186523438	316.0806884765625	-600.182373046875	-892.37890625	39.93998718261719	-516.4646606445312	-971.6161499023438	48.04803848266602	-518.6224365234375	-935.2987060546875	42.7952880859375	-616.36376953125	-1106.448364257812	73.51160430908203	-621.9550170898438	-911.4635620117188	443.6043395996094	-323.3287963867188	-929.3717651367188	694.8860473632812	-268.0855712890625	-1154.023681640625	98.23328399658203	-412.3882141113281	-954.854736328125	311.904541015625	-340.0889587402344	-975.537841796875	42.70259094238281	-365.1067810058594	-1007.906494140625	50.53676223754883	-428.7958679199219	-1069.087646484375	59.03620147705078	-353.1359558105469	-1182.398193359375	106.4551239013672	-477.4710388183594	-955.3235473632812	827.0657958984375	-268.5181579589844	
87	0.86	-966.409912109375	945.2813110351562	-416.6766357421875	-896.8428344726562	954.0528564453125	-518.7898559570312	-939.2401733398438	1012.319091796875	-472.672607421875	-723.9254150390625	1166.396850585938	-378.0674133300781	-947.1729125976562	1119.4970703125	-470.7518310546875	-894.9146728515625	1346.2001953125	-448.6408386230469	-752.7869873046875	1262.733276367188	-392.3809204101562	-973.4137573242188	1226.500122070312	-387.1887817382812	-884.3341064453125	1292.642822265625	-538.2777099609375	-767.5148315429688	1337.113037109375	-568.7771606445312	-766.23046875	1217.205200195312	-638.6369018554688	-750.3838500976562	1018.801086425781	-673.8468017578125	-843.9097290039062	998.4695434570312	-644.0166625976562	-636.9739990234375	864.581787109375	-582.1740112304688	-664.7998046875	819.8881225585938	-660.7392578125	-712.44873046875	951.2117919921875	-664.7238159179688	-649.6199340820312	705.2532958984375	-554.86669921875	-649.5191040039062	766.7664184570312	-637.932861328125	-619.43212890625	780.755615234375	-580.5511474609375	-895.9209594726562	1339.545166015625	-290.0279541015625	-936.1376953125	1275.456176757812	-243.2093505859375	-968.0775146484375	1010.593444824219	-196.4788970947266	-1006.483276367188	997.32421875	-248.3602142333984	-863.0880126953125	815.350830078125	-183.7661285400391	-949.814208984375	786.5239868164062	-179.1195068359375	-969.1318969726562	956.3493041992188	-188.4918518066406	-846.82177734375	658.6585083007812	-182.7966461181641	-855.6683959960938	723.306884765625	-153.2964019775391	-924.1220092773438	715.0858154296875	-168.2551727294922	-910.2765502929688	1488.635009765625	-364.8297424316406	-736.2426147460938	1567.986083984375	-425.425048828125	-800.6427612304688	1556.060668945312	-316.0442810058594	-842.544189453125	1497.696533203125	-508.7253112792969	-744.0867919921875	873.3682861328125	-582.6416015625	-828.539306640625	868.4111328125	-268.681640625	-698.7513427734375	892.924560546875	-472.4993286132812	-820.1419677734375	452.3863525390625	-564.0509643554688	-766.6710205078125	605.1328125	-567.3975830078125	-1035.177856445312	67.03939056396484	-654.4766845703125	-887.7526245117188	315.4718627929688	-600.677001953125	-892.5663452148438	39.93351364135742	-516.465576171875	-971.670654296875	48.04026412963867	-518.866455078125	-935.3233032226562	42.56058120727539	-616.572509765625	-1106.44140625	73.36611175537109	-622.4998779296875	-895.4434204101562	442.4989318847656	-317.8546752929688	-921.5706787109375	693.8167724609375	-265.8392944335938	-1148.054443359375	107.8668060302734	-409.5562744140625	-940.858642578125	313.4247436523438	-334.84033203125	-974.3955688476562	42.41007614135742	-364.4050903320312	-1005.153564453125	52.21034622192383	-427.4244384765625	-1065.776000976562	62.17008209228516	-351.5330200195312	-1175.499389648438	119.0537338256836	-474.4213562011719	-950.4282836914062	825.779296875	-266.6673278808594	
88	0.87	-962.0635986328125	943.2750854492188	-415.2988586425781	-892.5863037109375	952.491455078125	-517.2260131835938	-933.8338623046875	1011.705871582031	-471.9458312988281	-717.905029296875	1165.1142578125	-376.1169128417969	-940.7315673828125	1118.859008789062	-470.3679809570312	-888.162841796875	1345.319213867188	-447.4651184082031	-746.6649780273438	1261.4609375	-390.4110717773438	-967.3961181640625	1225.75439453125	-386.890380859375	-876.9217529296875	1291.962280273438	-537.1634521484375	-759.6214599609375	1336.2705078125	-566.6781005859375	-756.8402709960938	1216.18505859375	-636.3338623046875	-740.1920776367188	1017.306518554688	-671.212890625	-834.1419067382812	997.2161865234375	-642.1349487304688	-626.4719848632812	864.8126220703125	-578.7483520507812	-655.6353759765625	817.631591796875	-655.108154296875	-702.5961303710938	949.6505126953125	-661.3594360351562	-634.0222778320312	706.0735473632812	-547.1038818359375	-638.4949340820312	765.5541381835938	-631.6171264648438	-606.9022827148438	781.7005615234375	-575.6929321289062	-890.183349609375	1338.33837890625	-288.8264465332031	-931.0704345703125	1274.436279296875	-242.5001525878906	-966.5640869140625	1009.840637207031	-197.7486114501953	-1004.364440917969	997.4826049804688	-250.3266754150391	-865.5435791015625	812.270263671875	-184.3782043457031	-952.924560546875	785.2846069335938	-180.9464721679688	-968.6119384765625	955.6822509765625	-190.0131378173828	-852.8340454101562	655.18994140625	-183.5434265136719	-860.4530639648438	720.0224609375	-154.1596374511719	-928.8593139648438	713.3179931640625	-170.1130218505859	-904.2508544921875	1487.72216796875	-363.3658752441406	-730.0919799804688	1566.661987304688	-424.1609802246094	-794.581787109375	1555.215698242188	-314.7876281738281	-836.40966796875	1496.130981445312	-507.240234375	-739.9251098632812	871.7167358398438	-581.3839721679688	-823.85107421875	867.9874267578125	-267.3938293457031	-694.0668334960938	891.4634399414062	-471.3842468261719	-819.0154418945312	451.6376953125	-564.4214477539062	-764.5925903320312	603.9474487304688	-566.5701293945312	-1035.224731445312	66.62865447998047	-654.7320556640625	-887.3219604492188	314.9057006835938	-601.1121215820312	-892.7146606445312	39.92186737060547	-516.4146728515625	-971.74951171875	47.97756576538086	-519.01513671875	-935.4267578125	42.38467407226562	-616.6828002929688	-1106.563720703125	73.03943634033203	-622.8368530273438	-878.96484375	441.7942199707031	-311.5386047363281	-913.491943359375	693.0033569335938	-263.1634216308594	-1140.807861328125	117.9460372924805	-406.4019165039062	-926.1928100585938	315.423095703125	-329.0715637207031	-972.3014526367188	42.26978302001953	-363.5127563476562	-1001.440307617188	54.38317108154297	-425.8403625488281	-1061.516357421875	65.79502868652344	-349.7297973632812	-1167.148681640625	132.0585632324219	-470.9955139160156	-945.4303588867188	824.5579833984375	-264.7029418945312	
89	0.88	-957.6736450195312	941.099609375	-413.8870849609375	-888.3272094726562	950.76708984375	-515.6654663085938	-928.2026977539062	1011.112548828125	-471.2311706542969	-711.8327026367188	1163.720947265625	-374.0135498046875	-934.1366577148438	1118.166870117188	-470.0296630859375	-881.2867431640625	1344.37744140625	-446.1678771972656	-740.4853515625	1260.092895507812	-388.2197875976562	-961.34619140625	1224.935546875	-386.6424560546875	-869.3228149414062	1291.27978515625	-535.9551391601562	-751.5119018554688	1335.425537109375	-564.323486328125	-747.0066528320312	1215.161987304688	-633.7449340820312	-729.4443969726562	1015.75830078125	-668.1858520507812	-823.8679809570312	995.9153442382812	-639.9318237304688	-615.5938720703125	864.9063720703125	-574.8939208984375	-646.3743286132812	815.0303344726562	-648.58642578125	-692.3333129882812	947.937255859375	-657.5267944335938	-617.9456787109375	707.2216186523438	-538.3568115234375	-627.3235473632812	764.154296875	-624.32568359375	-594.0303955078125	782.6237182617188	-570.2299194335938	-884.450439453125	1337.024291992188	-287.5170288085938	-926.0481567382812	1273.324096679688	-241.7450408935547	-965.2926635742188	1009.067016601562	-199.1165618896484	-1002.326477050781	997.621337890625	-252.4754943847656	-868.276123046875	809.1829833984375	-185.1334686279297	-956.2433471679688	784.0602416992188	-183.0136108398438	-968.3392944335938	954.9860229492188	-191.6543121337891	-859.1351928710938	651.7977905273438	-184.7029113769531	-865.4880981445312	716.7532348632812	-155.3559875488281	-933.8606567382812	711.594970703125	-172.2639007568359	-898.1271362304688	1486.740356445312	-361.8284301757812	-723.8883056640625	1565.250854492188	-422.9407348632812	-788.4327392578125	1554.394165039062	-313.5488586425781	-830.2138671875	1494.358642578125	-505.6958312988281	-735.802978515625	869.9017944335938	-580.113037109375	-818.9950561523438	867.5921020507812	-265.9748840332031	-689.3656616210938	889.8837280273438	-470.2653198242188	-818.2138061523438	450.9054260253906	-564.8209228515625	-762.7344360351562	602.6697387695312	-565.66552734375	-1035.37646484375	66.15611267089844	-654.8213500976562	-887.1618041992188	314.3622436523438	-601.4957885742188	-892.8165893554688	39.90744018554688	-516.3187255859375	-971.8595581054688	47.87185668945312	-519.0833129882812	-935.5829467773438	42.2549934387207	-616.7009887695312	-1106.802490234375	72.54705047607422	-622.99560546875	-862.2830200195312	441.5383911132812	-304.51025390625	-905.1482543945312	692.447509765625	-260.0237426757812	-1132.2822265625	128.1676025390625	-402.9013061523438	-911.0306396484375	317.852294921875	-322.8353271484375	-968.867431640625	42.43295669555664	-362.3380432128906	-996.5420532226562	57.22656631469727	-423.9964599609375	-1056.110961914062	69.94136810302734	-347.6676025390625	-1157.421264648438	145.0542602539062	-467.1756896972656	-940.2522583007812	823.3991088867188	-262.5674743652344	
